<svg xmlns="http://www.w3.org/2000/svg" viewBox="0 0 154 129" width="154" height="129">
  <path d="M152.331 24.7911C152.331 38.4829 118.23 49.5822 76.1654 49.5822C34.1004 49.5822 0 38.4829 0 24.7911C0 11.0994 34.1004 0 76.1654 0C118.23 0 152.331 11.0994 152.331 24.7911Z" fill="#D9D9D9" fill-opacity="0.20000000298023224" transform="translate(-0.001 75.027)" />
  <path d="M152.331 24.7911C152.331 38.4829 118.23 49.5822 76.1654 49.5822C34.1004 49.5822 0 38.4829 0 24.7911C0 11.0994 34.1004 0 76.1654 0C118.23 0 152.331 11.0994 152.331 24.7911Z" fill="#D9D9D9" fill-opacity="0.20000000298023224" transform="translate(-0.001 38.478)" />
  <path d="M152.331 24.7911C152.331 38.4829 118.23 49.5822 76.1654 49.5822C34.1004 49.5822 0 38.4829 0 24.7911C0 11.0994 34.1004 0 76.1654 0C118.23 0 152.331 11.0994 152.331 24.7911Z" fill="#D9D9D9" fill-opacity="0.20000000298023224" transform="translate(-0.001 0.0)" />
</svg>
